{"title":"I.Spit.On.Your.Grave.2.2013.UNRATED.BluRay.1080p.Cinemania.cc.mk","uid":8893875,"size":8085161863,"categoryP":"video","categoryS":"hd___movies","magnet":"?xt=urn:btih:754ed97912f39302540511c18d2dc62a1374a449&amp;dn=I.Spit.On.Your.Grave.2.2013.UNRATED.BluRay.1080p.Cinemania.cc.mk&amp;tr=udp%3A%2F%2Ftracker.openbittorrent.com%3A80&amp;tr=udp%3A%2F%2Fopen.demonii.com%3A1337&amp;tr=udp%3A%2F%2Ftracker.coppersurfer.tk%3A6969&amp;tr=udp%3A%2F%2Fexodus.desync.com%3A6969","seeders":0,"leechers":0,"uploader":"ABSTAIN","files":1,"time":1378652531,"description":"[img]http://cinemania.cc/torrents/images/6180.jpg[/img]\n &lt;a href=&quot;\nhttp://www.imdb.com/title/tt2537176/&quot; rel=&quot;nofollow&quot; target=&quot;_NEW&quot;&gt;\nhttp://www.imdb.com/title/tt2537176/&lt;/a&gt;\n\nGeneral \nI.Spit.On.Your.Grave.2.2013.UNRATED.BluRay.1080p.Cinemania.cc.mkv \nFormat : Matroska \nFormat version : Version 4 / Version 2 \nFile size : 7.53 GiB \nDuration : 1h 46mn \nOverall bit rate : 10.2 Mbps \nMovie name : CINEMANIA.CC \nEncoded date : UTC 2013-09-08 12:14:13 \nWriting application : mkvmerge v6.3.0 ('You can't stop me!') built on Jun 28 2013 20:09:41 \nWriting library : libebml v1.3.0 + libmatroska v1.4.0 \n\nVideo \nID : 1 \nFormat : AVC \nFormat/Info : Advanced Video Codec \nFormat profile : &lt;a class=&quot;__cf_email__&quot; href=&quot;/cdn-cgi/l/email-protection&quot; data-cfemail=&quot;2961404e4169651d0718&quot;&gt;[email&amp;#160;protected]&lt;/a&gt;&lt;script cf-hash='f9e31' type=&quot;text/javascript&quot;&gt;\n/* &lt;![CDATA[ */!function(){try{var t=&quot;currentScript&quot;in document?document.currentScript:function(){for(var t=document.getElementsByTagName(&quot;script&quot;),e=t.length;e--;)if(t[e].getAttribute(&quot;cf-hash&quot;))return t[e]}();if(t&amp;&amp;t.previousSibling){var e,r,n,i,c=t.previousSibling,a=c.getAttribute(&quot;data-cfemail&quot;);if(a){for(e=&quot;&quot;,r=parseInt(a.substr(0,2),16),n=2;a.length-n;n+=2)i=parseInt(a.substr(n,2),16)^r,e+=String.fromCharCode(i);e=document.createTextNode(e),c.parentNode.replaceChild(e,c)}}}catch(u){}}();/* ]]&gt; */&lt;/script&gt; \nFormat settings, CABAC : Yes \nFormat settings, ReFrames : 5 frames \nCodec ID : V_MPEG4/ISO/AVC \nDuration : 1h 46mn \nBit rate : 9 118 Kbps \nNominal bit rate : 9 670 Kbps \nWidth : 1 920 pixels \nHeight : 800 pixels \nDisplay aspect ratio : 2.40:1 \nFrame rate mode : Constant \nFrame rate : 23.976 fps \nColor space : YUV \nChroma subsampling : 4:2:0 \nBit depth : 8 bits \nScan type : Progressive \nBits/(Pixel*Frame) : 0.248 \nStream size : 6.76 GiB (90%) \nTitle : CINEMANIA.CC \nWriting library : x264 core 130 r2273 b3065e6 \nEncoding settings : cabac=1 // deblock=1:-3:-3 / analyse=0x3:0x113 / me=umh / subme=7 / psy=1 / psy_rd=1.00:0.00 // me_range=16 / chroma_me=1 / trellis=1 / 8x8dct=1 / cqm=0 / deadzone=21,11 / fast_pskip=1 / chroma_qp_offset=-2 / threads=16 / lookahead_threads=2 / sliced_threads=0 / nr=0 / decimate=1 / interlaced=0 / bluray_compat=0 / constrained_intra=0 / bframes=3 / b_pyramid=2 / b_adapt=1 / b_bias=0 / direct=3 / weightb=1 / open_gop=0 / weightp=2 / keyint=240 / keyint_min=23 / scenecut=40 / intra_refresh=0 / rc=abr / mbtree=0 / bitrate=9670 / ratetol=1.0 / qcomp=0.60 / qpmin=0 / qpmax=69 / qpstep=4 / ip_ratio=1.40 / pb_ratio=1.30 / aq=1:1.00 \nLanguage : English \nDefault : Yes \nForced : No \n\nAudio #1 \nID : 2 \nFormat : AC-3 \nFormat/Info : Audio Coding 3 \nMode extension : CM (complete main) \nFormat settings, Endianness : Big \nCodec ID : A_AC3 \nDuration : 1h 46mn \nBit rate mode : Constant \nBit rate : 192 Kbps \nChannel(s) : 2 channels \nChannel positions : Front: L R \nSampling rate : 48.0 KHz \nBit depth : 16 bits \nCompression mode : Lossy \nStream size : 146 MiB (2%) \nTitle : den904 \nLanguage : Russian \nDefault : Yes \nForced : Yes \n\nAudio #2 \nID : 3 \nFormat : AC-3 \nFormat/Info : Audio Coding 3 \nMode extension : CM (complete main) \nFormat settings, Endianness : Big \nCodec ID : A_AC3 \nDuration : 1h 46mn \nBit rate mode : Constant \nBit rate : 640 Kbps \nChannel(s) : 6 channels \nChannel positions : Front: L C R, Side: L R, LFE \nSampling rate : 48.0 KHz \nBit depth : 16 bits \nCompression mode : Lossy \nStream size : 486 MiB (6%) \nLanguage : English \nDefault : No \nForced : No \n\nText \nID : 4 \nFormat : UTF-8 \nCodec ID : S_TEXT/UTF8 \nCodec ID/Info : UTF-8 Plain Text \nLanguage : English \nDefault : No \nForced : No \n\nMenu \n00:00:00.000 : en:00:00:00.000 \n00:07:11.056 : en:00:07:11.056 \n00:15:08.491 : en:00:15:08.491 \n00:24:16.455 : en:00:24:16.455 \n00:36:33.108 : en:00:36:33.108 \n00:46:44.844 : en:00:46:44.844 \n00:59:19.306 : en:00:59:19.306 \n01:11:52.683 : en:01:11:52.683 \n01:17:31.981 : en:01:17:31.981 \n01:23:12.112 : en:01:23:12.112 \n01:29:12.430 : en:01:29:12.430 \n01:42:08.205 : en:01:42:08.205 ","torrent":{"xt":"urn:btih:754ed97912f39302540511c18d2dc62a1374a449","amp;dn":"I.Spit.On.Your.Grave.2.2013.UNRATED.BluRay.1080p.Cinemania.cc.mk","amp;tr":["udp%3A%2F%2Ftracker.openbittorrent.com%3A80","udp%3A%2F%2Fopen.demonii.com%3A1337","udp%3A%2F%2Ftracker.coppersurfer.tk%3A6969","udp%3A%2F%2Fexodus.desync.com%3A6969"],"infoHash":"754ed97912f39302540511c18d2dc62a1374a449","infoHashBuffer":{"type":"Buffer","data":[117,78,217,121,18,243,147,2,84,5,17,193,141,45,198,42,19,116,164,73]},"announce":[],"urlList":[]}}